<svg xmlns="http://www.w3.org/2000/svg" viewBox="0 0 761 400"><defs><style>.a,.c,.e{fill:#ff8900;}.b{fill:#f2f2f2;}.c,.e{stroke:#fff;stroke-miterlimit:10;}.c{stroke-width:2px;}.d,.f{fill:#fff;}.e{stroke-width:4px;}.f{font-size:19px;font-family:FuturaBT-Medium, Futura Md BT;}</style></defs><title>Full on JM Logo</title><rect class="a" x="56" y="11" width="5" height="146" rx="2.5" ry="2.5"/><rect class="a" x="225" y="12" width="5" height="146" rx="2.5" ry="2.5"/><rect class="a" x="535.56" y="342.24" width="5" height="172.23" rx="2.5" ry="2.5" transform="translate(-579.09 -18.58) rotate(-30)"/><rect class="a" x="620.56" y="342.24" width="5" height="172.23" rx="2.5" ry="2.5" transform="translate(-139.35 -599.14) rotate(30)"/><rect class="a" x="469.5" y="331.5" width="5" height="48" rx="2.5" ry="2.5" transform="translate(-320.5 482.5) rotate(-90)"/><circle class="b" cx="142.5" cy="155.5" r="4.5"/><path class="c" d="M495.5,511a9.5,9.5,0,1,1,9.5-9.5,9.5,9.5,0,0,1-9.5,9.5" transform="translate(-437 -345)"/><rect class="a" x="56" y="156" width="5" height="73" rx="2.5" ry="2.5"/><circle class="b" cx="58.5" cy="156.5" r="4.5"/><rect class="a" x="470.48" y="514.71" width="5" height="71.5" rx="2.5" ry="2.5" transform="translate(-687.13 143.5) rotate(-44.43)"/><circle class="c" cx="11.5" cy="180.5" r="9.5"/><circle class="b" cx="11.5" cy="180.5" r="4.5"/><circle class="c" cx="143.5" cy="155.5" r="9.5"/><circle class="c" cx="58.5" cy="10.5" r="9.5"/><path class="a" d="M671,498.5" transform="translate(-437 -345)"/><path class="a" d="M671,354.5" transform="translate(-437 -345)"/><path class="b" d="M676,354.5" transform="translate(-437 -345)"/><path class="b" d="M676,498.5" transform="translate(-437 -345)"/><circle class="c" cx="227.5" cy="155.5" r="9.5"/><circle class="c" cx="227.5" cy="11.5" r="9.5"/><circle class="b" cx="227.5" cy="11.5" r="4.5"/><circle class="b" cx="227.5" cy="155.5" r="4.5"/><circle class="b" cx="143.5" cy="155.5" r="4.5"/><circle class="b" cx="58.5" cy="10.5" r="4.5"/><circle class="c" cx="58.5" cy="226.5" r="9.5"/><circle class="b" cx="58.5" cy="226.5" r="4.5"/><circle class="c" cx="10.5" cy="10.5" r="9.5"/><circle class="b" cx="10.5" cy="10.5" r="4.5"/><rect class="d" x="157" y="385" width="45" height="15"/><polyline class="d" points="716 293 761 293 761 278 716 278"/><polygon class="d" points="281 90 281 90 281 90 281 90 281 90"/><rect class="e" x="486.52" y="417.43" width="187.11" height="24" transform="translate(-502.76 -237.75) rotate(-10)"/><text class="f" transform="translate(97.08 99.64) rotate(-10)">Jatin Mehta</text><rect class="d" x="230" y="38" width="21" height="56"/><rect class="d" x="35" y="80" width="21" height="56"/></svg>