<svg xmlns="http://www.w3.org/2000/svg" viewBox="0 0 236 235"><defs><style>.a{fill:#ff8900;}.b{fill:#f2f2f2;}</style></defs><title>Github like JM logo</title><rect class="a" x="208.5" y="346.5" width="5" height="48" rx="2.5" ry="2.5" transform="translate(-336.5 220.5) rotate(-90)"/><circle class="b" cx="141.5" cy="154.5" r="4.5"/><rect class="a" x="55" y="10" width="5" height="146" rx="2.5" ry="2.5"/><path class="a" d="M234.5,526a9.5,9.5,0,1,1,9.5-9.5,9.5,9.5,0,0,1-9.5,9.5" transform="translate(-177 -361)"/><rect class="a" x="55" y="155" width="5" height="73" rx="2.5" ry="2.5"/><circle class="b" cx="57.5" cy="155.5" r="4.5"/><rect class="a" x="209.48" y="529.71" width="5" height="71.5" rx="2.5" ry="2.5" transform="translate(-512.25 -50.93) rotate(-44.43)"/><circle class="a" cx="10.5" cy="179.5" r="9.5"/><circle class="b" cx="10.5" cy="179.5" r="4.5"/><circle class="a" cx="142.5" cy="154.5" r="9.5"/><circle class="a" cx="57.5" cy="9.5" r="9.5"/><path class="a" d="M410,513.5" transform="translate(-177 -361)"/><path class="a" d="M410,369.5" transform="translate(-177 -361)"/><path class="b" d="M415,369.5" transform="translate(-177 -361)"/><path class="b" d="M415,513.5" transform="translate(-177 -361)"/><rect class="a" x="274.56" y="357.24" width="5" height="172.23" rx="2.5" ry="2.5" transform="translate(-361.56 -163.07) rotate(-30)"/><rect class="a" x="359.56" y="357.24" width="5" height="172.23" rx="2.5" ry="2.5" transform="translate(93.19 -482.63) rotate(30)"/><circle class="a" cx="226.5" cy="154.5" r="9.5"/><circle class="a" cx="226.5" cy="10.5" r="9.5"/><rect class="a" x="224" y="11" width="5" height="146" rx="2.5" ry="2.5"/><circle class="b" cx="226.5" cy="10.5" r="4.5"/><circle class="b" cx="226.5" cy="154.5" r="4.5"/><circle class="b" cx="142.5" cy="154.5" r="4.5"/><circle class="b" cx="57.5" cy="9.5" r="4.5"/><circle class="a" cx="57.5" cy="225.5" r="9.5"/><circle class="b" cx="57.5" cy="225.5" r="4.5"/><circle class="a" cx="9.5" cy="9.5" r="9.5"/><circle class="b" cx="9.5" cy="9.5" r="4.5"/></svg>